{
    "asset" : {
        "generator" : "Khronos glTF Blender I/O v1.8.19",
        "version" : "2.0"
    },
    "scene" : 0,
    "scenes" : [
        {
            "name" : "Scene",
            "nodes" : [
                0,
                1,
                2,
                3,
                4,
                5
            ]
        }
    ],
    "nodes" : [
        {
            "mesh" : 0,
            "name" : "high20ft",
            "translation" : [
                -5.999000072479248,
                0,
                -1.149999976158142
            ]
        },
        {
            "mesh" : 1,
            "name" : "high.003",
            "scale" : [
                5.999000072479248,
                1.1749999523162842,
                1.1649999618530273
            ]
        },
        {
            "mesh" : 2,
            "name" : "door.008",
            "scale" : [
                5.999000072479248,
                1.1749999523162842,
                1.1649999618530273
            ],
            "translation" : [
                -0.00018548965454101562,
                0,
                -1.1649996042251587
            ]
        },
        {
            "mesh" : 3,
            "name" : "door.009",
            "rotation" : [
                -1,
                0,
                0,
                7.549790126404332e-08
            ],
            "scale" : [
                5.999000072479248,
                -1.1749999523162842,
                1.1649999618530273
            ],
            "translation" : [
                -0.04380287975072861,
                0,
                1.165000081062317
            ]
        },
        {
            "mesh" : 4,
            "name" : "door.010",
            "rotation" : [
                0,
                0,
                1,
                5.6999328827277325e-15
            ],
            "scale" : [
                5.999000072479248,
                -1.1749999523162842,
                1.1649999618530273
            ],
            "translation" : [
                -5.999000072479248,
                0,
                -1.149999976158142
            ]
        },
        {
            "mesh" : 5,
            "name" : "door.011",
            "rotation" : [
                0,
                1,
                0,
                7.549790126404332e-08
            ],
            "scale" : [
                5.999000072479248,
                1.1749999523162842,
                1.1649999618530273
            ],
            "translation" : [
                -5.999000549316406,
                0,
                1.149999976158142
            ]
        }
    ],
    "materials" : [
        {
            "doubleSided" : true,
            "name" : "Material.002",
            "pbrMetallicRoughness" : {
                "baseColorFactor" : [
                    0.800000011920929,
                    0.800000011920929,
                    0.800000011920929,
                    1
                ],
                "metallicFactor" : 0,
                "roughnessFactor" : 0.4000000059604645
            }
        },
        {
            "doubleSided" : true,
            "name" : "metal.002",
            "pbrMetallicRoughness" : {
                "baseColorFactor" : [
                    0.800000011920929,
                    0.800000011920929,
                    0.800000011920929,
                    1
                ],
                "roughnessFactor" : 0.4365079402923584
            }
        },
        {
            "doubleSided" : true,
            "name" : "Material.003",
            "pbrMetallicRoughness" : {
                "baseColorFactor" : [
                    0.800000011920929,
                    0.800000011920929,
                    0.800000011920929,
                    1
                ],
                "metallicFactor" : 0,
                "roughnessFactor" : 0.4000000059604645
            }
        },
        {
            "doubleSided" : true,
            "name" : "metal.003",
            "pbrMetallicRoughness" : {
                "baseColorFactor" : [
                    0.800000011920929,
                    0.800000011920929,
                    0.800000011920929,
                    1
                ],
                "roughnessFactor" : 0.4365079402923584
            }
        }
    ],
    "meshes" : [
        {
            "name" : "\u7acb\u65b9\u4f53.002",
            "primitives" : [
                {
                    "attributes" : {
                        "POSITION" : 0,
                        "NORMAL" : 1,
                        "TEXCOORD_0" : 2
                    },
                    "indices" : 3,
                    "material" : 0
                },
                {
                    "attributes" : {
                        "POSITION" : 4,
                        "NORMAL" : 5,
                        "TEXCOORD_0" : 6
                    },
                    "indices" : 7,
                    "material" : 1
                }
            ]
        },
        {
            "name" : "\u7acb\u65b9\u4f53.012",
            "primitives" : [
                {
                    "attributes" : {
                        "POSITION" : 8,
                        "NORMAL" : 9,
                        "TEXCOORD_0" : 10
                    },
                    "indices" : 11,
                    "material" : 2
                }
            ]
        },
        {
            "name" : "\u7acb\u65b9\u4f53.013",
            "primitives" : [
                {
                    "attributes" : {
                        "POSITION" : 12,
                        "NORMAL" : 13,
                        "TEXCOORD_0" : 14
                    },
                    "indices" : 15,
                    "material" : 2
                },
                {
                    "attributes" : {
                        "POSITION" : 16,
                        "NORMAL" : 17,
                        "TEXCOORD_0" : 18
                    },
                    "indices" : 19,
                    "material" : 3
                }
            ]
        },
        {
            "name" : "\u7acb\u65b9\u4f53.014",
            "primitives" : [
                {
                    "attributes" : {
                        "POSITION" : 20,
                        "NORMAL" : 21,
                        "TEXCOORD_0" : 22
                    },
                    "indices" : 15,
                    "material" : 2
                },
                {
                    "attributes" : {
                        "POSITION" : 23,
                        "NORMAL" : 24,
                        "TEXCOORD_0" : 25
                    },
                    "indices" : 19,
                    "material" : 3
                }
            ]
        },
        {
            "name" : "\u7acb\u65b9\u4f53.018",
            "primitives" : [
                {
                    "attributes" : {
                        "POSITION" : 26,
                        "NORMAL" : 27,
                        "TEXCOORD_0" : 28
                    },
                    "indices" : 15,
                    "material" : 2
                },
                {
                    "attributes" : {
                        "POSITION" : 29,
                        "NORMAL" : 30,
                        "TEXCOORD_0" : 31
                    },
                    "indices" : 19,
                    "material" : 3
                }
            ]
        },
        {
            "name" : "\u7acb\u65b9\u4f53.019",
            "primitives" : [
                {
                    "attributes" : {
                        "POSITION" : 32,
                        "NORMAL" : 33,
                        "TEXCOORD_0" : 34
                    },
                    "indices" : 19,
                    "material" : 3
                },
                {
                    "attributes" : {
                        "POSITION" : 35,
                        "NORMAL" : 36,
                        "TEXCOORD_0" : 37
                    },
                    "indices" : 15,
                    "material" : 2
                }
            ]
        }
    ],
    "accessors" : [
        {
            "bufferView" : 0,
            "componentType" : 5126,
            "count" : 1696,
            "max" : [
                5.998815059661865,
                1.2955002784729004,
                2.36899995803833
            ],
            "min" : [
                -0.09718526899814606,
                -1.2954996824264526,
                -0.06899970024824142
            ],
            "type" : "VEC3"
        },
        {
            "bufferView" : 1,
            "componentType" : 5126,
            "count" : 1696,
            "type" : "VEC3"
        },
        {
            "bufferView" : 2,
            "componentType" : 5126,
            "count" : 1696,
            "type" : "VEC2"
        },
        {
            "bufferView" : 3,
            "componentType" : 5123,
            "count" : 2880,
            "type" : "SCALAR"
        },
        {
            "bufferView" : 4,
            "componentType" : 5126,
            "count" : 576,
            "max" : [
                5.998814582824707,
                1.25,
                1.9060513973236084
            ],
            "min" : [
                -0.07244482636451721,
                -1.250000238418579,
                0.39394861459732056
            ],
            "type" : "VEC3"
        },
        {
            "bufferView" : 5,
            "componentType" : 5126,
            "count" : 576,
            "type" : "VEC3"
        },
        {
            "bufferView" : 6,
            "componentType" : 5126,
            "count" : 576,
            "type" : "VEC2"
        },
        {
            "bufferView" : 7,
            "componentType" : 5123,
            "count" : 960,
            "type" : "SCALAR"
        },
        {
            "bufferView" : 8,
            "componentType" : 5126,
            "count" : 964,
            "max" : [
                -3.0875205993652344e-05,
                1.102553367614746,
                1.046351671218872
            ],
            "min" : [
                -1.0162001848220825,
                -1.1025530099868774,
                -1.046351671218872
            ],
            "type" : "VEC3"
        },
        {
            "bufferView" : 9,
            "componentType" : 5126,
            "count" : 964,
            "type" : "VEC3"
        },
        {
            "bufferView" : 10,
            "componentType" : 5126,
            "count" : 964,
            "type" : "VEC2"
        },
        {
            "bufferView" : 11,
            "componentType" : 5123,
            "count" : 1584,
            "type" : "SCALAR"
        },
        {
            "bufferView" : 12,
            "componentType" : 5126,
            "count" : 168,
            "max" : [
                -0.007270774804055691,
                0.9999995827674866,
                1.000347375869751
            ],
            "min" : [
                -0.01744445413351059,
                -1.0000004768371582,
                -2.384185791015625e-07
            ],
            "type" : "VEC3"
        },
        {
            "bufferView" : 13,
            "componentType" : 5126,
            "count" : 168,
            "type" : "VEC3"
        },
        {
            "bufferView" : 14,
            "componentType" : 5126,
            "count" : 168,
            "type" : "VEC2"
        },
        {
            "bufferView" : 15,
            "componentType" : 5123,
            "count" : 324,
            "type" : "SCALAR"
        },
        {
            "bufferView" : 16,
            "componentType" : 5126,
            "count" : 120,
            "max" : [
                9.313225746154785e-10,
                1.0638294219970703,
                0.8488224744796753
            ],
            "min" : [
                -0.006885251961648464,
                -1.0638303756713867,
                0.3510286808013916
            ],
            "type" : "VEC3"
        },
        {
            "bufferView" : 17,
            "componentType" : 5126,
            "count" : 120,
            "type" : "VEC3"
        },
        {
            "bufferView" : 18,
            "componentType" : 5126,
            "count" : 120,
            "type" : "VEC2"
        },
        {
            "bufferView" : 19,
            "componentType" : 5123,
            "count" : 240,
            "type" : "SCALAR"
        },
        {
            "bufferView" : 20,
            "componentType" : 5126,
            "count" : 168,
            "max" : [
                9.313225746154785e-10,
                0.9999999403953552,
                1.00034761428833
            ],
            "min" : [
                -0.01017367746680975,
                -1,
                5.960464477539063e-08
            ],
            "type" : "VEC3"
        },
        {
            "bufferView" : 21,
            "componentType" : 5126,
            "count" : 168,
            "type" : "VEC3"
        },
        {
            "bufferView" : 22,
            "componentType" : 5126,
            "count" : 168,
            "type" : "VEC2"
        },
        {
            "bufferView" : 23,
            "componentType" : 5126,
            "count" : 120,
            "max" : [
                0.00727077666670084,
                1.0638296604156494,
                0.8488227725028992
            ],
            "min" : [
                0.0003855237737298012,
                -1.0638298988342285,
                0.3510289192199707
            ],
            "type" : "VEC3"
        },
        {
            "bufferView" : 24,
            "componentType" : 5126,
            "count" : 120,
            "type" : "VEC3"
        },
        {
            "bufferView" : 25,
            "componentType" : 5126,
            "count" : 120,
            "type" : "VEC2"
        },
        {
            "bufferView" : 26,
            "componentType" : 5126,
            "count" : 168,
            "max" : [
                0.004805207252502441,
                1,
                0.9874720573425293
            ],
            "min" : [
                -0.005368471145629883,
                -1,
                -0.012875556945800781
            ],
            "type" : "VEC3"
        },
        {
            "bufferView" : 27,
            "componentType" : 5126,
            "count" : 168,
            "type" : "VEC3"
        },
        {
            "bufferView" : 28,
            "componentType" : 5126,
            "count" : 168,
            "type" : "VEC2"
        },
        {
            "bufferView" : 29,
            "componentType" : 5126,
            "count" : 120,
            "max" : [
                0.012075982987880707,
                1.063829779624939,
                0.8359471559524536
            ],
            "min" : [
                0.005190730094909668,
                -1.063829779624939,
                0.33815330266952515
            ],
            "type" : "VEC3"
        },
        {
            "bufferView" : 30,
            "componentType" : 5126,
            "count" : 120,
            "type" : "VEC3"
        },
        {
            "bufferView" : 31,
            "componentType" : 5126,
            "count" : 120,
            "type" : "VEC2"
        },
        {
            "bufferView" : 32,
            "componentType" : 5126,
            "count" : 120,
            "max" : [
                0.012075982987880707,
                1.063829779624939,
                0.8359471559524536
            ],
            "min" : [
                0.005190730094909668,
                -1.063829779624939,
                0.33815330266952515
            ],
            "type" : "VEC3"
        },
        {
            "bufferView" : 33,
            "componentType" : 5126,
            "count" : 120,
            "type" : "VEC3"
        },
        {
            "bufferView" : 34,
            "componentType" : 5126,
            "count" : 120,
            "type" : "VEC2"
        },
        {
            "bufferView" : 35,
            "componentType" : 5126,
            "count" : 168,
            "max" : [
                0.004805207252502441,
                1,
                0.9874720573425293
            ],
            "min" : [
                -0.005368471145629883,
                -1,
                -0.012875556945800781
            ],
            "type" : "VEC3"
        },
        {
            "bufferView" : 36,
            "componentType" : 5126,
            "count" : 168,
            "type" : "VEC3"
        },
        {
            "bufferView" : 37,
            "componentType" : 5126,
            "count" : 168,
            "type" : "VEC2"
        }
    ],
    "bufferViews" : [
        {
            "buffer" : 0,
            "byteLength" : 20352,
            "byteOffset" : 0
        },
        {
            "buffer" : 0,
            "byteLength" : 20352,
            "byteOffset" : 20352
        },
        {
            "buffer" : 0,
            "byteLength" : 13568,
            "byteOffset" : 40704
        },
        {
            "buffer" : 0,
            "byteLength" : 5760,
            "byteOffset" : 54272
        },
        {
            "buffer" : 0,
            "byteLength" : 6912,
            "byteOffset" : 60032
        },
        {
            "buffer" : 0,
            "byteLength" : 6912,
            "byteOffset" : 66944
        },
        {
            "buffer" : 0,
            "byteLength" : 4608,
            "byteOffset" : 73856
        },
        {
            "buffer" : 0,
            "byteLength" : 1920,
            "byteOffset" : 78464
        },
        {
            "buffer" : 0,
            "byteLength" : 11568,
            "byteOffset" : 80384
        },
        {
            "buffer" : 0,
            "byteLength" : 11568,
            "byteOffset" : 91952
        },
        {
            "buffer" : 0,
            "byteLength" : 7712,
            "byteOffset" : 103520
        },
        {
            "buffer" : 0,
            "byteLength" : 3168,
            "byteOffset" : 111232
        },
        {
            "buffer" : 0,
            "byteLength" : 2016,
            "byteOffset" : 114400
        },
        {
            "buffer" : 0,
            "byteLength" : 2016,
            "byteOffset" : 116416
        },
        {
            "buffer" : 0,
            "byteLength" : 1344,
            "byteOffset" : 118432
        },
        {
            "buffer" : 0,
            "byteLength" : 648,
            "byteOffset" : 119776
        },
        {
            "buffer" : 0,
            "byteLength" : 1440,
            "byteOffset" : 120424
        },
        {
            "buffer" : 0,
            "byteLength" : 1440,
            "byteOffset" : 121864
        },
        {
            "buffer" : 0,
            "byteLength" : 960,
            "byteOffset" : 123304
        },
        {
            "buffer" : 0,
            "byteLength" : 480,
            "byteOffset" : 124264
        },
        {
            "buffer" : 0,
            "byteLength" : 2016,
            "byteOffset" : 124744
        },
        {
            "buffer" : 0,
            "byteLength" : 2016,
            "byteOffset" : 126760
        },
        {
            "buffer" : 0,
            "byteLength" : 1344,
            "byteOffset" : 128776
        },
        {
            "buffer" : 0,
            "byteLength" : 1440,
            "byteOffset" : 130120
        },
        {
            "buffer" : 0,
            "byteLength" : 1440,
            "byteOffset" : 131560
        },
        {
            "buffer" : 0,
            "byteLength" : 960,
            "byteOffset" : 133000
        },
        {
            "buffer" : 0,
            "byteLength" : 2016,
            "byteOffset" : 133960
        },
        {
            "buffer" : 0,
            "byteLength" : 2016,
            "byteOffset" : 135976
        },
        {
            "buffer" : 0,
            "byteLength" : 1344,
            "byteOffset" : 137992
        },
        {
            "buffer" : 0,
            "byteLength" : 1440,
            "byteOffset" : 139336
        },
        {
            "buffer" : 0,
            "byteLength" : 1440,
            "byteOffset" : 140776
        },
        {
            "buffer" : 0,
            "byteLength" : 960,
            "byteOffset" : 142216
        },
        {
            "buffer" : 0,
            "byteLength" : 1440,
            "byteOffset" : 143176
        },
        {
            "buffer" : 0,
            "byteLength" : 1440,
            "byteOffset" : 144616
        },
        {
            "buffer" : 0,
            "byteLength" : 960,
            "byteOffset" : 146056
        },
        {
            "buffer" : 0,
            "byteLength" : 2016,
            "byteOffset" : 147016
        },
        {
            "buffer" : 0,
            "byteLength" : 2016,
            "byteOffset" : 149032
        },
        {
            "buffer" : 0,
            "byteLength" : 1344,
            "byteOffset" : 151048
        }
    ],
    "buffers" : [
        {
            "byteLength" : 152392,
            "uri" : "data:application/octet-stream;base64,"
        }
    ]
}
