{
    "asset" : {
        "generator" : "Khronos glTF Blender I/O v1.8.19",
        "version" : "2.0"
    },
    "scene" : 0,
    "scenes" : [
        {
            "name" : "Scene",
            "nodes" : [
                0,
                1,
                2,
                3
            ]
        }
    ],
    "nodes" : [
        {
            "mesh" : 0,
            "name" : "Pole.012",
            "translation" : [
                0,
                -1.819000005722046,
                -2.054511070251465
            ]
        },
        {
            "mesh" : 1,
            "name" : "Tri.002",
            "translation" : [
                0,
                0.3260989189147949,
                -2
            ]
        },
        {
            "mesh" : 2,
            "name" : "Cir.003",
            "translation" : [
                0,
                -0.39899998903274536,
                -2
            ]
        },
        {
            "mesh" : 3,
            "name" : "Rect-small.004",
            "translation" : [
                0,
                -0.7590000033378601,
                -2.005499839782715
            ]
        }
    ],
    "materials" : [
        {
            "doubleSided" : true,
            "name" : "front-kisei-tri",
            "pbrMetallicRoughness" : {
                "baseColorTexture" : {
                    "index" : 0
                },
                "metallicFactor" : 0,
                "roughnessFactor" : 0.5
            }
        },
        {
            "doubleSided" : true,
            "name" : "back",
            "pbrMetallicRoughness" : {
                "baseColorFactor" : [
                    0.5583397746086121,
                    0.5711246132850647,
                    0.577580451965332,
                    1
                ],
                "roughnessFactor" : 0.2222222089767456
            }
        },
        {
            "doubleSided" : true,
            "name" : "alum.001",
            "pbrMetallicRoughness" : {
                "baseColorFactor" : [
                    0.913097620010376,
                    0.9215812683105469,
                    0.9215818643569946,
                    1
                ],
                "roughnessFactor" : 0.4000000059604645
            }
        },
        {
            "doubleSided" : true,
            "name" : "front-kisei-cir.004",
            "pbrMetallicRoughness" : {
                "baseColorTexture" : {
                    "index" : 1
                },
                "metallicFactor" : 0,
                "roughnessFactor" : 0.5
            }
        },
        {
            "doubleSided" : true,
            "name" : "alum",
            "pbrMetallicRoughness" : {
                "baseColorFactor" : [
                    0.913097620010376,
                    0.9215812683105469,
                    0.9215818643569946,
                    1
                ],
                "roughnessFactor" : 0.4000000059604645
            }
        },
        {
            "doubleSided" : true,
            "name" : "front-hojo-rect",
            "pbrMetallicRoughness" : {
                "baseColorTexture" : {
                    "index" : 2
                },
                "metallicFactor" : 0,
                "roughnessFactor" : 0.5
            }
        }
    ],
    "meshes" : [
        {
            "name" : "Cylinder.022",
            "primitives" : [
                {
                    "attributes" : {
                        "POSITION" : 0,
                        "NORMAL" : 1,
                        "TEXCOORD_0" : 2
                    },
                    "indices" : 3
                }
            ]
        },
        {
            "name" : "Cylinder.023",
            "primitives" : [
                {
                    "attributes" : {
                        "POSITION" : 4,
                        "NORMAL" : 5,
                        "TEXCOORD_0" : 6
                    },
                    "indices" : 7,
                    "material" : 0
                },
                {
                    "attributes" : {
                        "POSITION" : 8,
                        "NORMAL" : 9,
                        "TEXCOORD_0" : 10
                    },
                    "indices" : 11,
                    "material" : 1
                },
                {
                    "attributes" : {
                        "POSITION" : 12,
                        "NORMAL" : 13,
                        "TEXCOORD_0" : 14
                    },
                    "indices" : 15,
                    "material" : 2
                }
            ]
        },
        {
            "name" : "Cylinder.024",
            "primitives" : [
                {
                    "attributes" : {
                        "POSITION" : 16,
                        "NORMAL" : 17,
                        "TEXCOORD_0" : 18
                    },
                    "indices" : 19,
                    "material" : 3
                },
                {
                    "attributes" : {
                        "POSITION" : 20,
                        "NORMAL" : 21,
                        "TEXCOORD_0" : 22
                    },
                    "indices" : 23,
                    "material" : 1
                },
                {
                    "attributes" : {
                        "POSITION" : 24,
                        "NORMAL" : 25,
                        "TEXCOORD_0" : 26
                    },
                    "indices" : 27,
                    "material" : 4
                }
            ]
        },
        {
            "name" : "Cube.043",
            "primitives" : [
                {
                    "attributes" : {
                        "POSITION" : 28,
                        "NORMAL" : 29,
                        "TEXCOORD_0" : 30
                    },
                    "indices" : 31,
                    "material" : 4
                },
                {
                    "attributes" : {
                        "POSITION" : 32,
                        "NORMAL" : 33,
                        "TEXCOORD_0" : 34
                    },
                    "indices" : 35,
                    "material" : 5
                },
                {
                    "attributes" : {
                        "POSITION" : 36,
                        "NORMAL" : 37,
                        "TEXCOORD_0" : 38
                    },
                    "indices" : 39,
                    "material" : 1
                }
            ]
        }
    ],
    "textures" : [
        {
            "sampler" : 0,
            "source" : 0
        },
        {
            "sampler" : 0,
            "source" : 1
        },
        {
            "sampler" : 0,
            "source" : 2
        }
    ],
    "images" : [
        {
            "bufferView" : 8,
            "mimeType" : "image/png",
            "name" : "330A"
        },
        {
            "bufferView" : 21,
            "mimeType" : "image/png",
            "name" : "316_7"
        },
        {
            "bufferView" : 38,
            "mimeType" : "image/png",
            "name" : "509-5"
        }
    ],
    "accessors" : [
        {
            "bufferView" : 0,
            "componentType" : 5126,
            "count" : 163,
            "max" : [
                0.029999999329447746,
                2.326098918914795,
                0.030011136084794998
            ],
            "min" : [
                -0.030000310391187668,
                -1,
                -0.029988868162035942
            ],
            "type" : "VEC3"
        },
        {
            "bufferView" : 1,
            "componentType" : 5126,
            "count" : 163,
            "type" : "VEC3"
        },
        {
            "bufferView" : 2,
            "componentType" : 5126,
            "count" : 163,
            "type" : "VEC2"
        },
        {
            "bufferView" : 3,
            "componentType" : 5123,
            "count" : 564,
            "type" : "SCALAR"
        },
        {
            "bufferView" : 4,
            "componentType" : 5126,
            "count" : 18,
            "max" : [
                0.3722016513347626,
                0.23082305490970612,
                -0.007700000889599323
            ],
            "min" : [
                -0.3722016215324402,
                -0.42509883642196655,
                -0.007700000889599323
            ],
            "type" : "VEC3"
        },
        {
            "bufferView" : 5,
            "componentType" : 5126,
            "count" : 18,
            "type" : "VEC3"
        },
        {
            "bufferView" : 6,
            "componentType" : 5126,
            "count" : 18,
            "type" : "VEC2"
        },
        {
            "bufferView" : 7,
            "componentType" : 5123,
            "count" : 48,
            "type" : "SCALAR"
        },
        {
            "bufferView" : 9,
            "componentType" : 5126,
            "count" : 300,
            "max" : [
                0.3722016513347626,
                0.23082305490970612,
                -0.007700000889599323
            ],
            "min" : [
                -0.3722016215324402,
                -0.42509889602661133,
                -0.018699999898672104
            ],
            "type" : "VEC3"
        },
        {
            "bufferView" : 10,
            "componentType" : 5126,
            "count" : 300,
            "type" : "VEC3"
        },
        {
            "bufferView" : 11,
            "componentType" : 5126,
            "count" : 300,
            "type" : "VEC2"
        },
        {
            "bufferView" : 12,
            "componentType" : 5123,
            "count" : 480,
            "type" : "SCALAR"
        },
        {
            "bufferView" : 13,
            "componentType" : 5126,
            "count" : 584,
            "max" : [
                0.2825356721878052,
                0.1809999942779541,
                -0.010500000789761543
            ],
            "min" : [
                -0.2825356721878052,
                -0.1810000091791153,
                -0.08749889582395554
            ],
            "type" : "VEC3"
        },
        {
            "bufferView" : 14,
            "componentType" : 5126,
            "count" : 584,
            "type" : "VEC3"
        },
        {
            "bufferView" : 15,
            "componentType" : 5126,
            "count" : 584,
            "type" : "VEC2"
        },
        {
            "bufferView" : 16,
            "componentType" : 5123,
            "count" : 1320,
            "type" : "SCALAR"
        },
        {
            "bufferView" : 17,
            "componentType" : 5126,
            "count" : 32,
            "max" : [
                0.30000001192092896,
                0.29999998211860657,
                -0.007700103335082531
            ],
            "min" : [
                -0.30000001192092896,
                -0.30000001192092896,
                -0.007700103335082531
            ],
            "type" : "VEC3"
        },
        {
            "bufferView" : 18,
            "componentType" : 5126,
            "count" : 32,
            "type" : "VEC3"
        },
        {
            "bufferView" : 19,
            "componentType" : 5126,
            "count" : 32,
            "type" : "VEC2"
        },
        {
            "bufferView" : 20,
            "componentType" : 5123,
            "count" : 90,
            "type" : "SCALAR"
        },
        {
            "bufferView" : 22,
            "componentType" : 5126,
            "count" : 512,
            "max" : [
                0.30000001192092896,
                0.30000001192092896,
                -0.007700103335082531
            ],
            "min" : [
                -0.30000001192092896,
                -0.30000001192092896,
                -0.01870010420680046
            ],
            "type" : "VEC3"
        },
        {
            "bufferView" : 23,
            "componentType" : 5126,
            "count" : 512,
            "type" : "VEC3"
        },
        {
            "bufferView" : 24,
            "componentType" : 5126,
            "count" : 512,
            "type" : "VEC2"
        },
        {
            "bufferView" : 25,
            "componentType" : 5123,
            "count" : 858,
            "type" : "SCALAR"
        },
        {
            "bufferView" : 26,
            "componentType" : 5126,
            "count" : 564,
            "max" : [
                0.18517155945301056,
                0.1809999942779541,
                -0.010500000789761543
            ],
            "min" : [
                -0.18517155945301056,
                -0.1809999942779541,
                -0.08749889582395554
            ],
            "type" : "VEC3"
        },
        {
            "bufferView" : 27,
            "componentType" : 5126,
            "count" : 564,
            "type" : "VEC3"
        },
        {
            "bufferView" : 28,
            "componentType" : 5126,
            "count" : 564,
            "type" : "VEC2"
        },
        {
            "bufferView" : 29,
            "componentType" : 5123,
            "count" : 1320,
            "type" : "SCALAR"
        },
        {
            "bufferView" : 30,
            "componentType" : 5126,
            "count" : 286,
            "max" : [
                0.18517155945301056,
                0.031000006943941116,
                -0.0049999975599348545
            ],
            "min" : [
                -0.18517155945301056,
                -0.030999988317489624,
                -0.08199889212846756
            ],
            "type" : "VEC3"
        },
        {
            "bufferView" : 31,
            "componentType" : 5126,
            "count" : 286,
            "type" : "VEC3"
        },
        {
            "bufferView" : 32,
            "componentType" : 5126,
            "count" : 286,
            "type" : "VEC2"
        },
        {
            "bufferView" : 33,
            "componentType" : 5123,
            "count" : 660,
            "type" : "SCALAR"
        },
        {
            "bufferView" : 34,
            "componentType" : 5126,
            "count" : 16,
            "max" : [
                0.19999998807907104,
                0.05999999865889549,
                -0.002200004644691944
            ],
            "min" : [
                -0.19999998807907104,
                -0.05999999865889549,
                -0.002200004644691944
            ],
            "type" : "VEC3"
        },
        {
            "bufferView" : 35,
            "componentType" : 5126,
            "count" : 16,
            "type" : "VEC3"
        },
        {
            "bufferView" : 36,
            "componentType" : 5126,
            "count" : 16,
            "type" : "VEC2"
        },
        {
            "bufferView" : 37,
            "componentType" : 5123,
            "count" : 42,
            "type" : "SCALAR"
        },
        {
            "bufferView" : 39,
            "componentType" : 5126,
            "count" : 260,
            "max" : [
                0.19999998807907104,
                0.05999999865889549,
                -0.002200004644691944
            ],
            "min" : [
                -0.19999998807907104,
                -0.05999999865889549,
                -0.0132000045850873
            ],
            "type" : "VEC3"
        },
        {
            "bufferView" : 40,
            "componentType" : 5126,
            "count" : 260,
            "type" : "VEC3"
        },
        {
            "bufferView" : 41,
            "componentType" : 5126,
            "count" : 260,
            "type" : "VEC2"
        },
        {
            "bufferView" : 42,
            "componentType" : 5123,
            "count" : 426,
            "type" : "SCALAR"
        }
    ],
    "bufferViews" : [
        {
            "buffer" : 0,
            "byteLength" : 1956,
            "byteOffset" : 0
        },
        {
            "buffer" : 0,
            "byteLength" : 1956,
            "byteOffset" : 1956
        },
        {
            "buffer" : 0,
            "byteLength" : 1304,
            "byteOffset" : 3912
        },
        {
            "buffer" : 0,
            "byteLength" : 1128,
            "byteOffset" : 5216
        },
        {
            "buffer" : 0,
            "byteLength" : 216,
            "byteOffset" : 6344
        },
        {
            "buffer" : 0,
            "byteLength" : 216,
            "byteOffset" : 6560
        },
        {
            "buffer" : 0,
            "byteLength" : 144,
            "byteOffset" : 6776
        },
        {
            "buffer" : 0,
            "byteLength" : 96,
            "byteOffset" : 6920
        },
        {
            "buffer" : 0,
            "byteLength" : 40577,
            "byteOffset" : 7016
        },
        {
            "buffer" : 0,
            "byteLength" : 3600,
            "byteOffset" : 47596
        },
        {
            "buffer" : 0,
            "byteLength" : 3600,
            "byteOffset" : 51196
        },
        {
            "buffer" : 0,
            "byteLength" : 2400,
            "byteOffset" : 54796
        },
        {
            "buffer" : 0,
            "byteLength" : 960,
            "byteOffset" : 57196
        },
        {
            "buffer" : 0,
            "byteLength" : 7008,
            "byteOffset" : 58156
        },
        {
            "buffer" : 0,
            "byteLength" : 7008,
            "byteOffset" : 65164
        },
        {
            "buffer" : 0,
            "byteLength" : 4672,
            "byteOffset" : 72172
        },
        {
            "buffer" : 0,
            "byteLength" : 2640,
            "byteOffset" : 76844
        },
        {
            "buffer" : 0,
            "byteLength" : 384,
            "byteOffset" : 79484
        },
        {
            "buffer" : 0,
            "byteLength" : 384,
            "byteOffset" : 79868
        },
        {
            "buffer" : 0,
            "byteLength" : 256,
            "byteOffset" : 80252
        },
        {
            "buffer" : 0,
            "byteLength" : 180,
            "byteOffset" : 80508
        },
        {
            "buffer" : 0,
            "byteLength" : 36869,
            "byteOffset" : 80688
        },
        {
            "buffer" : 0,
            "byteLength" : 6144,
            "byteOffset" : 117560
        },
        {
            "buffer" : 0,
            "byteLength" : 6144,
            "byteOffset" : 123704
        },
        {
            "buffer" : 0,
            "byteLength" : 4096,
            "byteOffset" : 129848
        },
        {
            "buffer" : 0,
            "byteLength" : 1716,
            "byteOffset" : 133944
        },
        {
            "buffer" : 0,
            "byteLength" : 6768,
            "byteOffset" : 135660
        },
        {
            "buffer" : 0,
            "byteLength" : 6768,
            "byteOffset" : 142428
        },
        {
            "buffer" : 0,
            "byteLength" : 4512,
            "byteOffset" : 149196
        },
        {
            "buffer" : 0,
            "byteLength" : 2640,
            "byteOffset" : 153708
        },
        {
            "buffer" : 0,
            "byteLength" : 3432,
            "byteOffset" : 156348
        },
        {
            "buffer" : 0,
            "byteLength" : 3432,
            "byteOffset" : 159780
        },
        {
            "buffer" : 0,
            "byteLength" : 2288,
            "byteOffset" : 163212
        },
        {
            "buffer" : 0,
            "byteLength" : 1320,
            "byteOffset" : 165500
        },
        {
            "buffer" : 0,
            "byteLength" : 192,
            "byteOffset" : 166820
        },
        {
            "buffer" : 0,
            "byteLength" : 192,
            "byteOffset" : 167012
        },
        {
            "buffer" : 0,
            "byteLength" : 128,
            "byteOffset" : 167204
        },
        {
            "buffer" : 0,
            "byteLength" : 84,
            "byteOffset" : 167332
        },
        {
            "buffer" : 0,
            "byteLength" : 8299,
            "byteOffset" : 167416
        },
        {
            "buffer" : 0,
            "byteLength" : 3120,
            "byteOffset" : 175716
        },
        {
            "buffer" : 0,
            "byteLength" : 3120,
            "byteOffset" : 178836
        },
        {
            "buffer" : 0,
            "byteLength" : 2080,
            "byteOffset" : 181956
        },
        {
            "buffer" : 0,
            "byteLength" : 852,
            "byteOffset" : 184036
        }
    ],
    "samplers" : [
        {
            "magFilter" : 9729,
            "minFilter" : 9987
        }
    ],
    "buffers" : [
        {
            "byteLength" : 184888,
            "uri" : "data:application/octet-stream;base64,"
        }
    ]
}
