{
    "asset" : {
        "generator" : "Khronos glTF Blender I/O v3.2.40",
        "version" : "2.0"
    },
    "scene" : 0,
    "scenes" : [
        {
            "name" : "Scene",
            "nodes" : [
                0
            ]
        }
    ],
    "nodes" : [
        {
            "mesh" : 0,
            "name" : "Cube"
        }
    ],
    "animations" : [
        {
            "channels" : [
                {
                    "sampler" : 0,
                    "target" : {
                        "node" : 0,
                        "path" : "rotation"
                    }
                }
            ],
            "name" : "CubeAction",
            "samplers" : [
                {
                    "input" : 16,
                    "interpolation" : "LINEAR",
                    "output" : 17
                }
            ]
        }
    ],
    "materials" : [
        {
            "doubleSided" : true,
            "name" : "Material",
            "pbrMetallicRoughness" : {
                "baseColorTexture" : {
                    "index" : 0
                },
                "metallicFactor" : 0,
                "roughnessFactor" : 0.4000000059604645
            }
        },
        {
            "doubleSided" : true,
            "name" : "Material.001",
            "pbrMetallicRoughness" : {
                "baseColorFactor" : [
                    0.800000011920929,
                    0.800000011920929,
                    0.800000011920929,
                    1
                ],
                "metallicFactor" : 0,
                "roughnessFactor" : 0.5
            }
        },
        {
            "doubleSided" : true,
            "name" : "Material.003",
            "pbrMetallicRoughness" : {
                "baseColorTexture" : {
                    "index" : 1
                },
                "metallicFactor" : 0,
                "roughnessFactor" : 0.5
            }
        },
        {
            "doubleSided" : true,
            "name" : "Material.004",
            "pbrMetallicRoughness" : {
                "baseColorTexture" : {
                    "index" : 2
                },
                "metallicFactor" : 0,
                "roughnessFactor" : 0.5
            }
        }
    ],
    "meshes" : [
        {
            "name" : "Cube",
            "primitives" : [
                {
                    "attributes" : {
                        "POSITION" : 0,
                        "NORMAL" : 1,
                        "TEXCOORD_0" : 2
                    },
                    "indices" : 3,
                    "material" : 0
                },
                {
                    "attributes" : {
                        "POSITION" : 4,
                        "NORMAL" : 5,
                        "TEXCOORD_0" : 6
                    },
                    "indices" : 7,
                    "material" : 1
                },
                {
                    "attributes" : {
                        "POSITION" : 8,
                        "NORMAL" : 9,
                        "TEXCOORD_0" : 10
                    },
                    "indices" : 11,
                    "material" : 2
                },
                {
                    "attributes" : {
                        "POSITION" : 12,
                        "NORMAL" : 13,
                        "TEXCOORD_0" : 14
                    },
                    "indices" : 15,
                    "material" : 3
                }
            ]
        }
    ],
    "textures" : [
        {
            "sampler" : 0,
            "source" : 0
        },
        {
            "sampler" : 0,
            "source" : 1
        },
        {
            "sampler" : 0,
            "source" : 2
        }
    ],
    "images" : [
        {
            "bufferView" : 4,
            "mimeType" : "image/jpeg",
            "name" : "20220227-A7401629_TP_V4"
        },
        {
            "bufferView" : 13,
            "mimeType" : "image/jpeg",
            "name" : "05WS-TN-000001-JP_01_1"
        },
        {
            "bufferView" : 18,
            "mimeType" : "image/jpeg",
            "name" : "32089000471"
        }
    ],
    "accessors" : [
        {
            "bufferView" : 0,
            "componentType" : 5126,
            "count" : 4,
            "max" : [
                0.4668921232223511,
                1.698734164237976,
                0.4985779821872711
            ],
            "min" : [
                -0.4985779821872711,
                -0.004847963806241751,
                0.4668921232223511
            ],
            "type" : "VEC3"
        },
        {
            "bufferView" : 1,
            "componentType" : 5126,
            "count" : 4,
            "type" : "VEC3"
        },
        {
            "bufferView" : 2,
            "componentType" : 5126,
            "count" : 4,
            "type" : "VEC2"
        },
        {
            "bufferView" : 3,
            "componentType" : 5123,
            "count" : 6,
            "type" : "SCALAR"
        },
        {
            "bufferView" : 5,
            "componentType" : 5126,
            "count" : 22,
            "max" : [
                0.4985779821872711,
                1.698734164237976,
                0.4985779821872711
            ],
            "min" : [
                -0.4985779821872711,
                -0.004847963806241751,
                -0.4985779821872711
            ],
            "type" : "VEC3"
        },
        {
            "bufferView" : 6,
            "componentType" : 5126,
            "count" : 22,
            "type" : "VEC3"
        },
        {
            "bufferView" : 7,
            "componentType" : 5126,
            "count" : 22,
            "type" : "VEC2"
        },
        {
            "bufferView" : 8,
            "componentType" : 5123,
            "count" : 36,
            "type" : "SCALAR"
        },
        {
            "bufferView" : 9,
            "componentType" : 5126,
            "count" : 8,
            "max" : [
                -0.4668921232223511,
                1.698734164237976,
                0.4668921232223511
            ],
            "min" : [
                -0.4985779821872711,
                -0.004847963806241751,
                -0.4985779821872711
            ],
            "type" : "VEC3"
        },
        {
            "bufferView" : 10,
            "componentType" : 5126,
            "count" : 8,
            "type" : "VEC3"
        },
        {
            "bufferView" : 11,
            "componentType" : 5126,
            "count" : 8,
            "type" : "VEC2"
        },
        {
            "bufferView" : 12,
            "componentType" : 5123,
            "count" : 12,
            "type" : "SCALAR"
        },
        {
            "bufferView" : 14,
            "componentType" : 5126,
            "count" : 4,
            "max" : [
                0.4985779821872711,
                1.698734164237976,
                -0.4668921232223511
            ],
            "min" : [
                -0.4668921232223511,
                -0.004847963806241751,
                -0.4985779821872711
            ],
            "type" : "VEC3"
        },
        {
            "bufferView" : 15,
            "componentType" : 5126,
            "count" : 4,
            "type" : "VEC3"
        },
        {
            "bufferView" : 16,
            "componentType" : 5126,
            "count" : 4,
            "type" : "VEC2"
        },
        {
            "bufferView" : 17,
            "componentType" : 5123,
            "count" : 6,
            "type" : "SCALAR"
        },
        {
            "bufferView" : 19,
            "componentType" : 5126,
            "count" : 193,
            "max" : [
                8
            ],
            "min" : [
                0
            ],
            "type" : "SCALAR"
        },
        {
            "bufferView" : 20,
            "componentType" : 5126,
            "count" : 193,
            "type" : "VEC4"
        }
    ],
    "bufferViews" : [
        {
            "buffer" : 0,
            "byteLength" : 48,
            "byteOffset" : 0
        },
        {
            "buffer" : 0,
            "byteLength" : 48,
            "byteOffset" : 48
        },
        {
            "buffer" : 0,
            "byteLength" : 32,
            "byteOffset" : 96
        },
        {
            "buffer" : 0,
            "byteLength" : 12,
            "byteOffset" : 128
        },
        {
            "buffer" : 0,
            "byteLength" : 191158,
            "byteOffset" : 140
        },
        {
            "buffer" : 0,
            "byteLength" : 264,
            "byteOffset" : 191300
        },
        {
            "buffer" : 0,
            "byteLength" : 264,
            "byteOffset" : 191564
        },
        {
            "buffer" : 0,
            "byteLength" : 176,
            "byteOffset" : 191828
        },
        {
            "buffer" : 0,
            "byteLength" : 72,
            "byteOffset" : 192004
        },
        {
            "buffer" : 0,
            "byteLength" : 96,
            "byteOffset" : 192076
        },
        {
            "buffer" : 0,
            "byteLength" : 96,
            "byteOffset" : 192172
        },
        {
            "buffer" : 0,
            "byteLength" : 64,
            "byteOffset" : 192268
        },
        {
            "buffer" : 0,
            "byteLength" : 24,
            "byteOffset" : 192332
        },
        {
            "buffer" : 0,
            "byteLength" : 48094,
            "byteOffset" : 192356
        },
        {
            "buffer" : 0,
            "byteLength" : 48,
            "byteOffset" : 240452
        },
        {
            "buffer" : 0,
            "byteLength" : 48,
            "byteOffset" : 240500
        },
        {
            "buffer" : 0,
            "byteLength" : 32,
            "byteOffset" : 240548
        },
        {
            "buffer" : 0,
            "byteLength" : 12,
            "byteOffset" : 240580
        },
        {
            "buffer" : 0,
            "byteLength" : 408349,
            "byteOffset" : 240592
        },
        {
            "buffer" : 0,
            "byteLength" : 772,
            "byteOffset" : 648944
        },
        {
            "buffer" : 0,
            "byteLength" : 3088,
            "byteOffset" : 649716
        }
    ],
    "samplers" : [
        {
            "magFilter" : 9729,
            "minFilter" : 9987
        }
    ],
    "buffers" : [
        {
            "byteLength" : 652804,
            "uri" : "data:application/octet-stream;base64,"
        }
    ]
}
